<?xml version="1.0" encoding="us-ascii" standalone="no"?><svg xmlns="http://www.w3.org/2000/svg" xmlns:xlink="http://www.w3.org/1999/xlink" contentStyleType="text/css" height="742px" preserveAspectRatio="none" style="width:942px;height:742px;background:#FFFFFF;" version="1.1" viewBox="0 0 942 742" width="942px" zoomAndPan="magnify"><defs/><g><text fill="#000000" font-family="sans-serif" font-size="14" font-weight="bold" lengthAdjust="spacing" textLength="364" x="285" y="29.5332">&#1044;&#1080;&#1072;&#1075;&#1088;&#1072;&#1084;&#1084;&#1072; &#1087;&#1086;&#1089;&#1083;&#1077;&#1076;&#1086;&#1074;&#1072;&#1090;&#1077;&#1083;&#1100;&#1085;&#1086;&#1089;&#1090;&#1080;: &#1047;&#1072;&#1075;&#1088;&#1091;&#1079;&#1082;&#1072; &#1092;&#1072;&#1081;&#1083;&#1086;&#1074;</text><rect fill="none" height="370.0547" style="stroke:#000000;stroke-width:1.5;" width="915" x="10" y="273.625"/><rect fill="none" height="79.0547" style="stroke:#000000;stroke-width:1.5;" width="286.5" x="479.5" y="359.6797"/><line style="stroke:#0078D7;stroke-width:0.5;stroke-dasharray:5.0,5.0;" x1="69" x2="69" y1="121.2188" y2="660.6797"/><line style="stroke:#0078D7;stroke-width:0.5;stroke-dasharray:5.0,5.0;" x1="255" x2="255" y1="121.2188" y2="660.6797"/><line style="stroke:#0078D7;stroke-width:0.5;stroke-dasharray:5.0,5.0;" x1="416.5" x2="416.5" y1="121.2188" y2="660.6797"/><line style="stroke:#0078D7;stroke-width:0.5;stroke-dasharray:5.0,5.0;" x1="547.5" x2="547.5" y1="121.2188" y2="660.6797"/><line style="stroke:#0078D7;stroke-width:0.5;stroke-dasharray:5.0,5.0;" x1="711" x2="711" y1="121.2188" y2="660.6797"/><line style="stroke:#0078D7;stroke-width:0.5;stroke-dasharray:5.0,5.0;" x1="840" x2="840" y1="121.2188" y2="660.6797"/><text fill="#000000" font-family="sans-serif" font-size="14" lengthAdjust="spacing" textLength="93" x="20" y="118.1426">&#1055;&#1086;&#1083;&#1100;&#1079;&#1086;&#1074;&#1072;&#1090;&#1077;&#1083;&#1100;</text><ellipse cx="69.5" cy="52.1094" fill="#E2E2F0" rx="8" ry="8" style="stroke:#0078D7;stroke-width:0.5;"/><path d="M69.5,60.1094 L69.5,87.1094 M56.5,68.1094 L82.5,68.1094 M69.5,87.1094 L56.5,102.1094 M69.5,87.1094 L82.5,102.1094 " fill="none" style="stroke:#0078D7;stroke-width:0.5;"/><text fill="#000000" font-family="sans-serif" font-size="14" lengthAdjust="spacing" textLength="93" x="20" y="674.2129">&#1055;&#1086;&#1083;&#1100;&#1079;&#1086;&#1074;&#1072;&#1090;&#1077;&#1083;&#1100;</text><ellipse cx="69.5" cy="685.7891" fill="#E2E2F0" rx="8" ry="8" style="stroke:#0078D7;stroke-width:0.5;"/><path d="M69.5,693.7891 L69.5,720.7891 M56.5,701.7891 L82.5,701.7891 M69.5,720.7891 L56.5,735.7891 M69.5,720.7891 L82.5,735.7891 " fill="none" style="stroke:#0078D7;stroke-width:0.5;"/><rect fill="#E1F5FE" height="31.6094" rx="2.5" ry="2.5" style="stroke:#0078D7;stroke-width:0.5;" width="125" x="193" y="88.6094"/><text fill="#000000" font-family="sans-serif" font-size="14" lengthAdjust="spacing" textLength="111" x="200" y="110.1426">&#1042;&#1077;&#1073;-&#1087;&#1088;&#1080;&#1083;&#1086;&#1078;&#1077;&#1085;&#1080;&#1077;</text><rect fill="#E1F5FE" height="31.6094" rx="2.5" ry="2.5" style="stroke:#0078D7;stroke-width:0.5;" width="125" x="193" y="659.6797"/><text fill="#000000" font-family="sans-serif" font-size="14" lengthAdjust="spacing" textLength="111" x="200" y="681.2129">&#1042;&#1077;&#1073;-&#1087;&#1088;&#1080;&#1083;&#1086;&#1078;&#1077;&#1085;&#1080;&#1077;</text><rect fill="#E1F5FE" height="31.6094" rx="2.5" ry="2.5" style="stroke:#0078D7;stroke-width:0.5;" width="94" x="369.5" y="88.6094"/><text fill="#000000" font-family="sans-serif" font-size="14" lengthAdjust="spacing" textLength="80" x="376.5" y="110.1426">API Gateway</text><rect fill="#E1F5FE" height="31.6094" rx="2.5" ry="2.5" style="stroke:#0078D7;stroke-width:0.5;" width="94" x="369.5" y="659.6797"/><text fill="#000000" font-family="sans-serif" font-size="14" lengthAdjust="spacing" textLength="80" x="376.5" y="681.2129">API Gateway</text><rect fill="#E1F5FE" height="31.6094" rx="2.5" ry="2.5" style="stroke:#0078D7;stroke-width:0.5;" width="116" x="489.5" y="88.6094"/><text fill="#000000" font-family="sans-serif" font-size="14" lengthAdjust="spacing" textLength="102" x="496.5" y="110.1426">&#1057;&#1077;&#1088;&#1074;&#1080;&#1089; &#1092;&#1072;&#1081;&#1083;&#1086;&#1074;</text><rect fill="#E1F5FE" height="31.6094" rx="2.5" ry="2.5" style="stroke:#0078D7;stroke-width:0.5;" width="116" x="489.5" y="659.6797"/><text fill="#000000" font-family="sans-serif" font-size="14" lengthAdjust="spacing" textLength="102" x="496.5" y="681.2129">&#1057;&#1077;&#1088;&#1074;&#1080;&#1089; &#1092;&#1072;&#1081;&#1083;&#1086;&#1074;</text><text fill="#000000" font-family="sans-serif" font-size="14" lengthAdjust="spacing" textLength="83" x="667" y="118.1426">&#1041;&#1072;&#1079;&#1072; &#1076;&#1072;&#1085;&#1085;&#1099;&#1093;</text><path d="M693.5,67.6094 C693.5,57.6094 711.5,57.6094 711.5,57.6094 C711.5,57.6094 729.5,57.6094 729.5,67.6094 L729.5,93.6094 C729.5,103.6094 711.5,103.6094 711.5,103.6094 C711.5,103.6094 693.5,103.6094 693.5,93.6094 L693.5,67.6094 " fill="#E2E2F0" style="stroke:#181818;stroke-width:1.5;"/><path d="M693.5,67.6094 C693.5,77.6094 711.5,77.6094 711.5,77.6094 C711.5,77.6094 729.5,77.6094 729.5,67.6094 " fill="none" style="stroke:#181818;stroke-width:1.5;"/><text fill="#000000" font-family="sans-serif" font-size="14" lengthAdjust="spacing" textLength="83" x="667" y="674.2129">&#1041;&#1072;&#1079;&#1072; &#1076;&#1072;&#1085;&#1085;&#1099;&#1093;</text><path d="M693.5,687.2891 C693.5,677.2891 711.5,677.2891 711.5,677.2891 C711.5,677.2891 729.5,677.2891 729.5,687.2891 L729.5,713.2891 C729.5,723.2891 711.5,723.2891 711.5,723.2891 C711.5,723.2891 693.5,723.2891 693.5,713.2891 L693.5,687.2891 " fill="#E2E2F0" style="stroke:#181818;stroke-width:1.5;"/><path d="M693.5,687.2891 C693.5,697.2891 711.5,697.2891 711.5,697.2891 C711.5,697.2891 729.5,697.2891 729.5,687.2891 " fill="none" style="stroke:#181818;stroke-width:1.5;"/><text fill="#000000" font-family="sans-serif" font-size="14" lengthAdjust="spacing" textLength="143" x="766" y="118.1426">&#1060;&#1072;&#1081;&#1083;&#1086;&#1074;&#1086;&#1077; &#1093;&#1088;&#1072;&#1085;&#1080;&#1083;&#1080;&#1097;&#1077;</text><path d="M822.5,67.6094 C822.5,57.6094 840.5,57.6094 840.5,57.6094 C840.5,57.6094 858.5,57.6094 858.5,67.6094 L858.5,93.6094 C858.5,103.6094 840.5,103.6094 840.5,103.6094 C840.5,103.6094 822.5,103.6094 822.5,93.6094 L822.5,67.6094 " fill="#E2E2F0" style="stroke:#181818;stroke-width:1.5;"/><path d="M822.5,67.6094 C822.5,77.6094 840.5,77.6094 840.5,77.6094 C840.5,77.6094 858.5,77.6094 858.5,67.6094 " fill="none" style="stroke:#181818;stroke-width:1.5;"/><text fill="#000000" font-family="sans-serif" font-size="14" lengthAdjust="spacing" textLength="143" x="766" y="674.2129">&#1060;&#1072;&#1081;&#1083;&#1086;&#1074;&#1086;&#1077; &#1093;&#1088;&#1072;&#1085;&#1080;&#1083;&#1080;&#1097;&#1077;</text><path d="M822.5,687.2891 C822.5,677.2891 840.5,677.2891 840.5,677.2891 C840.5,677.2891 858.5,677.2891 858.5,687.2891 L858.5,713.2891 C858.5,723.2891 840.5,723.2891 840.5,723.2891 C840.5,723.2891 822.5,723.2891 822.5,713.2891 L822.5,687.2891 " fill="#E2E2F0" style="stroke:#181818;stroke-width:1.5;"/><path d="M822.5,687.2891 C822.5,697.2891 840.5,697.2891 840.5,697.2891 C840.5,697.2891 858.5,697.2891 858.5,687.2891 " fill="none" style="stroke:#181818;stroke-width:1.5;"/><rect fill="#EEEEEE" height="3" style="stroke:#EEEEEE;stroke-width:1.0;" width="935" x="0" y="152.3945"/><line style="stroke:#000000;stroke-width:1.0;" x1="0" x2="935" y1="152.3945" y2="152.3945"/><line style="stroke:#000000;stroke-width:1.0;" x1="0" x2="935" y1="155.3945" y2="155.3945"/><rect fill="#EEEEEE" height="24.3516" style="stroke:#000000;stroke-width:2.0;" width="141" x="397" y="141.2188"/><text fill="#000000" font-family="sans-serif" font-size="13" font-weight="bold" lengthAdjust="spacing" textLength="123" x="403" y="158.7139">&#1056;&#1072;&#1073;&#1086;&#1090;&#1072; &#1089; &#1092;&#1072;&#1081;&#1083;&#1072;&#1084;&#1080;</text><polygon fill="#0078D7" points="243.5,193.9219,253.5,197.9219,243.5,201.9219,247.5,197.9219" style="stroke:#0078D7;stroke-width:1.0;"/><line style="stroke:#0078D7;stroke-width:1.0;" x1="69.5" x2="249.5" y1="197.9219" y2="197.9219"/><text fill="#000000" font-family="sans-serif" font-size="13" lengthAdjust="spacing" textLength="93" x="76.5" y="193.0654">&#1047;&#1072;&#1075;&#1088;&#1091;&#1079;&#1080;&#1090;&#1100; &#1092;&#1072;&#1081;&#1083;</text><polygon fill="#0078D7" points="404.5,224.2734,414.5,228.2734,404.5,232.2734,408.5,228.2734" style="stroke:#0078D7;stroke-width:1.0;"/><line style="stroke:#0078D7;stroke-width:1.0;" x1="255.5" x2="410.5" y1="228.2734" y2="228.2734"/><text fill="#000000" font-family="sans-serif" font-size="13" lengthAdjust="spacing" textLength="66" x="262.5" y="223.417">POST /files</text><polygon fill="#0078D7" points="535.5,254.625,545.5,258.625,535.5,262.625,539.5,258.625" style="stroke:#0078D7;stroke-width:1.0;"/><line style="stroke:#0078D7;stroke-width:1.0;" x1="416.5" x2="541.5" y1="258.625" y2="258.625"/><text fill="#000000" font-family="sans-serif" font-size="13" lengthAdjust="spacing" textLength="107" x="423.5" y="253.7686">&#1055;&#1077;&#1088;&#1077;&#1076;&#1072;&#1095;&#1072; &#1092;&#1072;&#1081;&#1083;&#1086;&#1074;</text><path d="M10,273.625 L71,273.625 L71,281.9766 L61,291.9766 L10,291.9766 L10,273.625 " fill="#EEEEEE" style="stroke:#000000;stroke-width:1.5;"/><rect fill="none" height="370.0547" style="stroke:#000000;stroke-width:1.5;" width="915" x="10" y="273.625"/><text fill="#000000" font-family="sans-serif" font-size="13" font-weight="bold" lengthAdjust="spacing" textLength="16" x="25" y="288.1201">alt</text><text fill="#000000" font-family="sans-serif" font-size="11" font-weight="bold" lengthAdjust="spacing" textLength="105" x="86" y="287.0439">[&#1054;&#1073;&#1088;&#1072;&#1073;&#1086;&#1090;&#1082;&#1072; &#1092;&#1072;&#1081;&#1083;&#1072;]</text><polygon fill="#0078D7" points="828.5,310.3281,838.5,314.3281,828.5,318.3281,832.5,314.3281" style="stroke:#0078D7;stroke-width:1.0;"/><line style="stroke:#0078D7;stroke-width:1.0;" x1="547.5" x2="834.5" y1="314.3281" y2="314.3281"/><text fill="#000000" font-family="sans-serif" font-size="13" lengthAdjust="spacing" textLength="97" x="554.5" y="309.4717">&#1057;&#1086;&#1093;&#1088;&#1072;&#1085;&#1080;&#1090;&#1100; &#1092;&#1072;&#1081;&#1083;</text><polygon fill="#0078D7" points="558.5,340.6797,548.5,344.6797,558.5,348.6797,554.5,344.6797" style="stroke:#0078D7;stroke-width:1.0;"/><line style="stroke:#0078D7;stroke-width:1.0;stroke-dasharray:2.0,2.0;" x1="552.5" x2="839.5" y1="344.6797" y2="344.6797"/><text fill="#000000" font-family="sans-serif" font-size="13" lengthAdjust="spacing" textLength="66" x="564.5" y="339.8232">URL &#1092;&#1072;&#1081;&#1083;&#1072;</text><path d="M479.5,359.6797 L691.5,359.6797 L691.5,368.0313 L681.5,378.0313 L479.5,378.0313 L479.5,359.6797 " fill="#EEEEEE" style="stroke:#000000;stroke-width:1.5;"/><rect fill="none" height="79.0547" style="stroke:#000000;stroke-width:1.5;" width="286.5" x="479.5" y="359.6797"/><text fill="#000000" font-family="sans-serif" font-size="13" font-weight="bold" lengthAdjust="spacing" textLength="167" x="494.5" y="374.1748">&#1057;&#1086;&#1093;&#1088;&#1072;&#1085;&#1077;&#1085;&#1080;&#1077; &#1084;&#1077;&#1090;&#1072;&#1076;&#1072;&#1085;&#1085;&#1099;&#1093;</text><polygon fill="#0078D7" points="699.5,396.3828,709.5,400.3828,699.5,404.3828,703.5,400.3828" style="stroke:#0078D7;stroke-width:1.0;"/><line style="stroke:#0078D7;stroke-width:1.0;" x1="547.5" x2="705.5" y1="400.3828" y2="400.3828"/><text fill="#000000" font-family="sans-serif" font-size="13" lengthAdjust="spacing" textLength="140" x="554.5" y="395.5264">&#1057;&#1086;&#1093;&#1088;&#1072;&#1085;&#1080;&#1090;&#1100; &#1084;&#1077;&#1090;&#1072;&#1076;&#1072;&#1085;&#1085;&#1099;&#1077;</text><polygon fill="#0078D7" points="558.5,426.7344,548.5,430.7344,558.5,434.7344,554.5,430.7344" style="stroke:#0078D7;stroke-width:1.0;"/><line style="stroke:#0078D7;stroke-width:1.0;stroke-dasharray:2.0,2.0;" x1="552.5" x2="710.5" y1="430.7344" y2="430.7344"/><text fill="#000000" font-family="sans-serif" font-size="13" lengthAdjust="spacing" textLength="57" x="564.5" y="425.8779">ID &#1079;&#1072;&#1087;&#1080;&#1089;&#1080;</text><polygon fill="#0078D7" points="427.5,464.0859,417.5,468.0859,427.5,472.0859,423.5,468.0859" style="stroke:#0078D7;stroke-width:1.0;"/><line style="stroke:#0078D7;stroke-width:1.0;stroke-dasharray:2.0,2.0;" x1="421.5" x2="546.5" y1="468.0859" y2="468.0859"/><text fill="#000000" font-family="sans-serif" font-size="13" lengthAdjust="spacing" textLength="98" x="433.5" y="463.2295">&#1059;&#1089;&#1087;&#1077;&#1096;&#1085;&#1099;&#1081; &#1086;&#1090;&#1074;&#1077;&#1090;</text><polygon fill="#0078D7" points="266.5,494.4375,256.5,498.4375,266.5,502.4375,262.5,498.4375" style="stroke:#0078D7;stroke-width:1.0;"/><line style="stroke:#0078D7;stroke-width:1.0;stroke-dasharray:2.0,2.0;" x1="260.5" x2="415.5" y1="498.4375" y2="498.4375"/><text fill="#000000" font-family="sans-serif" font-size="13" lengthAdjust="spacing" textLength="70" x="272.5" y="493.5811">201 Created</text><polygon fill="#0078D7" points="80.5,524.7891,70.5,528.7891,80.5,532.7891,76.5,528.7891" style="stroke:#0078D7;stroke-width:1.0;"/><line style="stroke:#0078D7;stroke-width:1.0;stroke-dasharray:2.0,2.0;" x1="74.5" x2="254.5" y1="528.7891" y2="528.7891"/><text fill="#000000" font-family="sans-serif" font-size="13" lengthAdjust="spacing" textLength="121" x="86.5" y="523.9326">&#1054;&#1090;&#1086;&#1073;&#1088;&#1072;&#1078;&#1077;&#1085;&#1080;&#1077; &#1092;&#1072;&#1081;&#1083;&#1072;</text><line style="stroke:#000000;stroke-width:1.0;stroke-dasharray:2.0,2.0;" x1="10" x2="925" y1="537.7891" y2="537.7891"/><text fill="#000000" font-family="sans-serif" font-size="11" font-weight="bold" lengthAdjust="spacing" textLength="106" x="15" y="549.208">[&#1054;&#1096;&#1080;&#1073;&#1082;&#1072; &#1086;&#1090;&#1087;&#1088;&#1072;&#1074;&#1082;&#1080;]</text><polygon fill="#0078D7" points="427.5,570.9766,417.5,574.9766,427.5,578.9766,423.5,574.9766" style="stroke:#0078D7;stroke-width:1.0;"/><line style="stroke:#0078D7;stroke-width:1.0;stroke-dasharray:2.0,2.0;" x1="421.5" x2="546.5" y1="574.9766" y2="574.9766"/><text fill="#000000" font-family="sans-serif" font-size="13" lengthAdjust="spacing" textLength="81" x="433.5" y="570.1201">&#1054;&#1096;&#1080;&#1073;&#1082;&#1072; (400)</text><polygon fill="#0078D7" points="266.5,601.3281,256.5,605.3281,266.5,609.3281,262.5,605.3281" style="stroke:#0078D7;stroke-width:1.0;"/><line style="stroke:#0078D7;stroke-width:1.0;stroke-dasharray:2.0,2.0;" x1="260.5" x2="415.5" y1="605.3281" y2="605.3281"/><text fill="#000000" font-family="sans-serif" font-size="13" lengthAdjust="spacing" textLength="137" x="272.5" y="600.4717">&#1055;&#1086;&#1082;&#1072;&#1079;&#1072;&#1090;&#1100; &#1090;&#1077;&#1082;&#1089;&#1090; &#1086;&#1096;&#1080;&#1073;&#1082;&#1080;</text><polygon fill="#0078D7" points="80.5,631.6797,70.5,635.6797,80.5,639.6797,76.5,635.6797" style="stroke:#0078D7;stroke-width:1.0;"/><line style="stroke:#0078D7;stroke-width:1.0;stroke-dasharray:2.0,2.0;" x1="74.5" x2="254.5" y1="635.6797" y2="635.6797"/><text fill="#000000" font-family="sans-serif" font-size="13" lengthAdjust="spacing" textLength="162" x="86.5" y="630.8232">"&#1055;&#1088;&#1077;&#1074;&#1099;&#1096;&#1077;&#1085; &#1088;&#1072;&#1079;&#1084;&#1077;&#1088; &#1092;&#1072;&#1081;&#1083;&#1072;"</text><!--SRC=[XLHTQnD157sVNt69B_fGJ4Mf215gsqYXOF3Z1qooqx8q9d5tGn0HscYneY-Au5jhqH-GnCPiKvFyXJl_o7Ddyx6R5ioIi3ltd3DdphsRo8-gXlWRnzpXt_O0ltznTOWdFBQ7VCbzFkSnzxXZsxY_j9zv91KynG-8loSq-uu7F0JDliV21MYWg73VhpLqe5zIMLVszu9wi-PjrAlrW6uKYyLKEJIlcgPMCVH64Qq7GRqrXUNpQ_StrsIn4jM3H_N0Cy5oQSVVDJj-pVodUiL1NYuWIZg8_8hVqBNeUeaqO5bbQxLuhxYbtYgbnI7nAKuk8GsoeP4EgHcQG3KMOfJZhwXsLtY2u6CNsXyiZ73VpmcZPSfPmdffcnxhoBJqQmVG3Nz9yOpx4EjnR0yppN3mNRzgbASZNTQX0VWBwWDfzZbkHZood-oH0thbDEpNGWRVFjaZDoWZvpcs7wTkGmIWzunIXGBn3m2w69Is34NAYinNJ8M2KaXM4g6LXt9EMXgcsBQHsen600i8M1mPsDAJPy_fjfmdb9eieYRF8dJgGf39xTWForFfTjRLYFY4k-uWYS_C-7Q0eKGFkjEJYVGPiFFZPpmwnWovid3pukbEIfSSZ6I86bcrQUC90VKbjdHJ4jBSZrU-tifLAlUdL51IdhOtIHgFbnnpWduuaAbvQhR7F6Z-2S04iiTExe9SLZtPPvRxl85tygkq4HZCfpVh5sgkoH0w0MyyJNm-vkd4mJ5L31oGnwXrNKVSTXD7wc4XJlLbuJ5Dk7atdx_bK5bpxiqS9WEVz4rUpQ7yayacCu5aWoNlEJvryzH3Bux5EZb30vVtGUeCEPN4YCy_]--></g></svg>