<?xml version="1.0" encoding="us-ascii" standalone="no"?><svg xmlns="http://www.w3.org/2000/svg" xmlns:xlink="http://www.w3.org/1999/xlink" contentStyleType="text/css" height="740px" preserveAspectRatio="none" style="width:1008px;height:740px;background:#FFFFFF;" version="1.1" viewBox="0 0 1008 740" width="1008px" zoomAndPan="magnify"><defs/><g><text fill="#000000" font-family="sans-serif" font-size="14" font-weight="bold" lengthAdjust="spacing" textLength="385" x="307.75" y="29.5332">&#1044;&#1080;&#1072;&#1075;&#1088;&#1072;&#1084;&#1084;&#1072; &#1087;&#1086;&#1089;&#1083;&#1077;&#1076;&#1086;&#1074;&#1072;&#1090;&#1077;&#1083;&#1100;&#1085;&#1086;&#1089;&#1090;&#1080;: &#1044;&#1086;&#1073;&#1072;&#1074;&#1083;&#1077;&#1085;&#1080;&#1077; &#1079;&#1072;&#1076;&#1072;&#1095;&#1080;</text><rect fill="none" height="368.0547" style="stroke:#000000;stroke-width:1.5;" width="981.5" x="10" y="273.625"/><line style="stroke:#0078D7;stroke-width:0.5;stroke-dasharray:5.0,5.0;" x1="69" x2="69" y1="121.2188" y2="658.6797"/><line style="stroke:#0078D7;stroke-width:0.5;stroke-dasharray:5.0,5.0;" x1="241" x2="241" y1="121.2188" y2="658.6797"/><line style="stroke:#0078D7;stroke-width:0.5;stroke-dasharray:5.0,5.0;" x1="402.5" x2="402.5" y1="121.2188" y2="658.6797"/><line style="stroke:#0078D7;stroke-width:0.5;stroke-dasharray:5.0,5.0;" x1="522.5" x2="522.5" y1="121.2188" y2="658.6797"/><line style="stroke:#0078D7;stroke-width:0.5;stroke-dasharray:5.0,5.0;" x1="672.5" x2="672.5" y1="121.2188" y2="658.6797"/><line style="stroke:#0078D7;stroke-width:0.5;stroke-dasharray:5.0,5.0;" x1="803.5" x2="803.5" y1="121.2188" y2="658.6797"/><line style="stroke:#0078D7;stroke-width:0.5;stroke-dasharray:5.0,5.0;" x1="919.5" x2="919.5" y1="121.2188" y2="658.6797"/><text fill="#000000" font-family="sans-serif" font-size="14" lengthAdjust="spacing" textLength="93" x="20" y="118.1426">&#1055;&#1086;&#1083;&#1100;&#1079;&#1086;&#1074;&#1072;&#1090;&#1077;&#1083;&#1100;</text><ellipse cx="69.5" cy="52.1094" fill="#E2E2F0" rx="8" ry="8" style="stroke:#0078D7;stroke-width:0.5;"/><path d="M69.5,60.1094 L69.5,87.1094 M56.5,68.1094 L82.5,68.1094 M69.5,87.1094 L56.5,102.1094 M69.5,87.1094 L82.5,102.1094 " fill="none" style="stroke:#0078D7;stroke-width:0.5;"/><text fill="#000000" font-family="sans-serif" font-size="14" lengthAdjust="spacing" textLength="93" x="20" y="672.2129">&#1055;&#1086;&#1083;&#1100;&#1079;&#1086;&#1074;&#1072;&#1090;&#1077;&#1083;&#1100;</text><ellipse cx="69.5" cy="683.7891" fill="#E2E2F0" rx="8" ry="8" style="stroke:#0078D7;stroke-width:0.5;"/><path d="M69.5,691.7891 L69.5,718.7891 M56.5,699.7891 L82.5,699.7891 M69.5,718.7891 L56.5,733.7891 M69.5,718.7891 L82.5,733.7891 " fill="none" style="stroke:#0078D7;stroke-width:0.5;"/><rect fill="#E1F5FE" height="31.6094" rx="2.5" ry="2.5" style="stroke:#0078D7;stroke-width:0.5;" width="125" x="179" y="88.6094"/><text fill="#000000" font-family="sans-serif" font-size="14" lengthAdjust="spacing" textLength="111" x="186" y="110.1426">&#1042;&#1077;&#1073;-&#1087;&#1088;&#1080;&#1083;&#1086;&#1078;&#1077;&#1085;&#1080;&#1077;</text><rect fill="#E1F5FE" height="31.6094" rx="2.5" ry="2.5" style="stroke:#0078D7;stroke-width:0.5;" width="125" x="179" y="657.6797"/><text fill="#000000" font-family="sans-serif" font-size="14" lengthAdjust="spacing" textLength="111" x="186" y="679.2129">&#1042;&#1077;&#1073;-&#1087;&#1088;&#1080;&#1083;&#1086;&#1078;&#1077;&#1085;&#1080;&#1077;</text><rect fill="#E1F5FE" height="31.6094" rx="2.5" ry="2.5" style="stroke:#0078D7;stroke-width:0.5;" width="94" x="355.5" y="88.6094"/><text fill="#000000" font-family="sans-serif" font-size="14" lengthAdjust="spacing" textLength="80" x="362.5" y="110.1426">API Gateway</text><rect fill="#E1F5FE" height="31.6094" rx="2.5" ry="2.5" style="stroke:#0078D7;stroke-width:0.5;" width="94" x="355.5" y="657.6797"/><text fill="#000000" font-family="sans-serif" font-size="14" lengthAdjust="spacing" textLength="80" x="362.5" y="679.2129">API Gateway</text><rect fill="#E1F5FE" height="31.6094" rx="2.5" ry="2.5" style="stroke:#0078D7;stroke-width:0.5;" width="126" x="459.5" y="88.6094"/><text fill="#000000" font-family="sans-serif" font-size="14" lengthAdjust="spacing" textLength="112" x="466.5" y="110.1426">&#1057;&#1077;&#1088;&#1074;&#1080;&#1089; &#1087;&#1088;&#1086;&#1077;&#1082;&#1090;&#1086;&#1074;</text><rect fill="#E1F5FE" height="31.6094" rx="2.5" ry="2.5" style="stroke:#0078D7;stroke-width:0.5;" width="126" x="459.5" y="657.6797"/><text fill="#000000" font-family="sans-serif" font-size="14" lengthAdjust="spacing" textLength="112" x="466.5" y="679.2129">&#1057;&#1077;&#1088;&#1074;&#1080;&#1089; &#1087;&#1088;&#1086;&#1077;&#1082;&#1090;&#1086;&#1074;</text><rect fill="#E1F5FE" height="31.6094" rx="2.5" ry="2.5" style="stroke:#0078D7;stroke-width:0.5;" width="154" x="595.5" y="88.6094"/><text fill="#000000" font-family="sans-serif" font-size="14" lengthAdjust="spacing" textLength="140" x="602.5" y="110.1426">&#1057;&#1077;&#1088;&#1074;&#1080;&#1089; &#1091;&#1074;&#1077;&#1076;&#1086;&#1084;&#1083;&#1077;&#1085;&#1080;&#1081;</text><rect fill="#E1F5FE" height="31.6094" rx="2.5" ry="2.5" style="stroke:#0078D7;stroke-width:0.5;" width="154" x="595.5" y="657.6797"/><text fill="#000000" font-family="sans-serif" font-size="14" lengthAdjust="spacing" textLength="140" x="602.5" y="679.2129">&#1057;&#1077;&#1088;&#1074;&#1080;&#1089; &#1091;&#1074;&#1077;&#1076;&#1086;&#1084;&#1083;&#1077;&#1085;&#1080;&#1081;</text><text fill="#000000" font-family="sans-serif" font-size="14" lengthAdjust="spacing" textLength="83" x="759.5" y="118.1426">&#1041;&#1072;&#1079;&#1072; &#1076;&#1072;&#1085;&#1085;&#1099;&#1093;</text><path d="M786,67.6094 C786,57.6094 804,57.6094 804,57.6094 C804,57.6094 822,57.6094 822,67.6094 L822,93.6094 C822,103.6094 804,103.6094 804,103.6094 C804,103.6094 786,103.6094 786,93.6094 L786,67.6094 " fill="#E2E2F0" style="stroke:#181818;stroke-width:1.5;"/><path d="M786,67.6094 C786,77.6094 804,77.6094 804,77.6094 C804,77.6094 822,77.6094 822,67.6094 " fill="none" style="stroke:#181818;stroke-width:1.5;"/><text fill="#000000" font-family="sans-serif" font-size="14" lengthAdjust="spacing" textLength="83" x="759.5" y="672.2129">&#1041;&#1072;&#1079;&#1072; &#1076;&#1072;&#1085;&#1085;&#1099;&#1093;</text><path d="M786,685.2891 C786,675.2891 804,675.2891 804,675.2891 C804,675.2891 822,675.2891 822,685.2891 L822,711.2891 C822,721.2891 804,721.2891 804,721.2891 C804,721.2891 786,721.2891 786,711.2891 L786,685.2891 " fill="#E2E2F0" style="stroke:#181818;stroke-width:1.5;"/><path d="M786,685.2891 C786,695.2891 804,695.2891 804,695.2891 C804,695.2891 822,695.2891 822,685.2891 " fill="none" style="stroke:#181818;stroke-width:1.5;"/><path d="M863.5,93.6094 L976.5,93.6094 C981.5,93.6094 981.5,107.4141 981.5,107.4141 C981.5,107.4141 981.5,121.2188 976.5,121.2188 L863.5,121.2188 C858.5,121.2188 858.5,107.4141 858.5,107.4141 C858.5,107.4141 858.5,93.6094 863.5,93.6094 " fill="#E2E2F0" style="stroke:#181818;stroke-width:0.5;"/><path d="M976.5,93.6094 C971.5,93.6094 971.5,107.4141 971.5,107.4141 C971.5,121.2188 976.5,121.2188 976.5,121.2188 " fill="none" style="stroke:#181818;stroke-width:0.5;"/><text fill="#000000" font-family="sans-serif" font-size="14" lengthAdjust="spacing" textLength="103" x="863.5" y="113.1426">Message Broker</text><path d="M863.5,657.6797 L976.5,657.6797 C981.5,657.6797 981.5,671.4844 981.5,671.4844 C981.5,671.4844 981.5,685.2891 976.5,685.2891 L863.5,685.2891 C858.5,685.2891 858.5,671.4844 858.5,671.4844 C858.5,671.4844 858.5,657.6797 863.5,657.6797 " fill="#E2E2F0" style="stroke:#181818;stroke-width:0.5;"/><path d="M976.5,657.6797 C971.5,657.6797 971.5,671.4844 971.5,671.4844 C971.5,685.2891 976.5,685.2891 976.5,685.2891 " fill="none" style="stroke:#181818;stroke-width:0.5;"/><text fill="#000000" font-family="sans-serif" font-size="14" lengthAdjust="spacing" textLength="103" x="863.5" y="677.2129">Message Broker</text><rect fill="#EEEEEE" height="3" style="stroke:#EEEEEE;stroke-width:1.0;" width="1001.5" x="0" y="152.3945"/><line style="stroke:#000000;stroke-width:1.0;" x1="0" x2="1001.5" y1="152.3945" y2="152.3945"/><line style="stroke:#000000;stroke-width:1.0;" x1="0" x2="1001.5" y1="155.3945" y2="155.3945"/><rect fill="#EEEEEE" height="24.3516" style="stroke:#000000;stroke-width:2.0;" width="150" x="425.75" y="141.2188"/><text fill="#000000" font-family="sans-serif" font-size="13" font-weight="bold" lengthAdjust="spacing" textLength="132" x="431.75" y="158.7139">&#1044;&#1086;&#1073;&#1072;&#1074;&#1083;&#1077;&#1085;&#1080;&#1077; &#1079;&#1072;&#1076;&#1072;&#1095;&#1080;</text><polygon fill="#0078D7" points="229.5,193.9219,239.5,197.9219,229.5,201.9219,233.5,197.9219" style="stroke:#0078D7;stroke-width:1.0;"/><line style="stroke:#0078D7;stroke-width:1.0;" x1="69.5" x2="235.5" y1="197.9219" y2="197.9219"/><text fill="#000000" font-family="sans-serif" font-size="13" lengthAdjust="spacing" textLength="137" x="76.5" y="193.0654">&#1057;&#1086;&#1079;&#1076;&#1072;&#1090;&#1100; &#1085;&#1086;&#1074;&#1091;&#1102; &#1079;&#1072;&#1076;&#1072;&#1095;&#1091;</text><polygon fill="#0078D7" points="390.5,224.2734,400.5,228.2734,390.5,232.2734,394.5,228.2734" style="stroke:#0078D7;stroke-width:1.0;"/><line style="stroke:#0078D7;stroke-width:1.0;" x1="241.5" x2="396.5" y1="228.2734" y2="228.2734"/><text fill="#000000" font-family="sans-serif" font-size="13" lengthAdjust="spacing" textLength="124" x="248.5" y="223.417">POST /tasks (&#1089; JWT)</text><polygon fill="#0078D7" points="510.5,254.625,520.5,258.625,510.5,262.625,514.5,258.625" style="stroke:#0078D7;stroke-width:1.0;"/><line style="stroke:#0078D7;stroke-width:1.0;" x1="402.5" x2="516.5" y1="258.625" y2="258.625"/><text fill="#000000" font-family="sans-serif" font-size="13" lengthAdjust="spacing" textLength="74" x="409.5" y="253.7686">CreateTask()</text><path d="M10,273.625 L71,273.625 L71,281.9766 L61,291.9766 L10,291.9766 L10,273.625 " fill="#EEEEEE" style="stroke:#000000;stroke-width:1.5;"/><rect fill="none" height="368.0547" style="stroke:#000000;stroke-width:1.5;" width="981.5" x="10" y="273.625"/><text fill="#000000" font-family="sans-serif" font-size="13" font-weight="bold" lengthAdjust="spacing" textLength="16" x="25" y="288.1201">alt</text><text fill="#000000" font-family="sans-serif" font-size="11" font-weight="bold" lengthAdjust="spacing" textLength="126" x="86" y="287.0439">[&#1059;&#1089;&#1087;&#1077;&#1096;&#1085;&#1072;&#1103; &#1074;&#1072;&#1083;&#1080;&#1076;&#1072;&#1094;&#1080;&#1103;]</text><polygon fill="#0078D7" points="792,310.3281,802,314.3281,792,318.3281,796,314.3281" style="stroke:#0078D7;stroke-width:1.0;"/><line style="stroke:#0078D7;stroke-width:1.0;" x1="522.5" x2="798" y1="314.3281" y2="314.3281"/><text fill="#000000" font-family="sans-serif" font-size="13" lengthAdjust="spacing" textLength="95" x="529.5" y="309.4717">&#1057;&#1086;&#1079;&#1076;&#1072;&#1090;&#1100; &#1079;&#1072;&#1076;&#1072;&#1095;&#1091;</text><polygon fill="#0078D7" points="533.5,340.6797,523.5,344.6797,533.5,348.6797,529.5,344.6797" style="stroke:#0078D7;stroke-width:1.0;"/><line style="stroke:#0078D7;stroke-width:1.0;stroke-dasharray:2.0,2.0;" x1="527.5" x2="803" y1="344.6797" y2="344.6797"/><text fill="#000000" font-family="sans-serif" font-size="13" lengthAdjust="spacing" textLength="58" x="539.5" y="339.8232">ID &#1079;&#1072;&#1076;&#1072;&#1095;&#1080;</text><polygon fill="#0078D7" points="908,371.0313,918,375.0313,908,379.0313,912,375.0313" style="stroke:#0078D7;stroke-width:1.0;"/><line style="stroke:#0078D7;stroke-width:1.0;" x1="522.5" x2="914" y1="375.0313" y2="375.0313"/><text fill="#000000" font-family="sans-serif" font-size="13" lengthAdjust="spacing" textLength="137" x="529.5" y="370.1748">&#1057;&#1086;&#1073;&#1099;&#1090;&#1080;&#1077; "task.created"</text><polygon fill="#0078D7" points="683.5,401.3828,673.5,405.3828,683.5,409.3828,679.5,405.3828" style="stroke:#0078D7;stroke-width:1.0;"/><line style="stroke:#0078D7;stroke-width:1.0;stroke-dasharray:2.0,2.0;" x1="677.5" x2="919" y1="405.3828" y2="405.3828"/><text fill="#000000" font-family="sans-serif" font-size="13" lengthAdjust="spacing" textLength="116" x="689.5" y="400.5264">&#1054;&#1073;&#1088;&#1072;&#1073;&#1086;&#1090;&#1082;&#1072; &#1089;&#1086;&#1073;&#1099;&#1090;&#1080;&#1103;</text><polygon fill="#0078D7" points="533.5,431.7344,523.5,435.7344,533.5,439.7344,529.5,435.7344" style="stroke:#0078D7;stroke-width:1.0;"/><line style="stroke:#0078D7;stroke-width:1.0;stroke-dasharray:2.0,2.0;" x1="527.5" x2="671.5" y1="435.7344" y2="435.7344"/><text fill="#000000" font-family="sans-serif" font-size="13" lengthAdjust="spacing" textLength="34" x="539.5" y="430.8779">&#1054;&#1090;&#1074;&#1077;&#1090;</text><polygon fill="#0078D7" points="413.5,462.0859,403.5,466.0859,413.5,470.0859,409.5,466.0859" style="stroke:#0078D7;stroke-width:1.0;"/><line style="stroke:#0078D7;stroke-width:1.0;stroke-dasharray:2.0,2.0;" x1="407.5" x2="521.5" y1="466.0859" y2="466.0859"/><text fill="#000000" font-family="sans-serif" font-size="13" lengthAdjust="spacing" textLength="34" x="419.5" y="461.2295">&#1054;&#1090;&#1074;&#1077;&#1090;</text><polygon fill="#0078D7" points="252.5,492.4375,242.5,496.4375,252.5,500.4375,248.5,496.4375" style="stroke:#0078D7;stroke-width:1.0;"/><line style="stroke:#0078D7;stroke-width:1.0;stroke-dasharray:2.0,2.0;" x1="246.5" x2="401.5" y1="496.4375" y2="496.4375"/><text fill="#000000" font-family="sans-serif" font-size="13" lengthAdjust="spacing" textLength="92" x="258.5" y="491.5811">&#1044;&#1072;&#1085;&#1085;&#1099;&#1077; &#1079;&#1072;&#1076;&#1072;&#1095;&#1080;</text><polygon fill="#0078D7" points="80.5,522.7891,70.5,526.7891,80.5,530.7891,76.5,526.7891" style="stroke:#0078D7;stroke-width:1.0;"/><line style="stroke:#0078D7;stroke-width:1.0;stroke-dasharray:2.0,2.0;" x1="74.5" x2="240.5" y1="526.7891" y2="526.7891"/><text fill="#000000" font-family="sans-serif" font-size="13" lengthAdjust="spacing" textLength="126" x="86.5" y="521.9326">&#1054;&#1090;&#1086;&#1073;&#1088;&#1072;&#1078;&#1077;&#1085;&#1080;&#1077; &#1079;&#1072;&#1076;&#1072;&#1095;&#1080;</text><line style="stroke:#000000;stroke-width:1.0;stroke-dasharray:2.0,2.0;" x1="10" x2="991.5" y1="535.7891" y2="535.7891"/><text fill="#000000" font-family="sans-serif" font-size="11" font-weight="bold" lengthAdjust="spacing" textLength="115" x="15" y="547.208">[&#1054;&#1096;&#1080;&#1073;&#1082;&#1072; &#1074;&#1072;&#1083;&#1080;&#1076;&#1072;&#1094;&#1080;&#1080;]</text><polygon fill="#0078D7" points="413.5,568.9766,403.5,572.9766,413.5,576.9766,409.5,572.9766" style="stroke:#0078D7;stroke-width:1.0;"/><line style="stroke:#0078D7;stroke-width:1.0;stroke-dasharray:2.0,2.0;" x1="407.5" x2="521.5" y1="572.9766" y2="572.9766"/><text fill="#000000" font-family="sans-serif" font-size="13" lengthAdjust="spacing" textLength="81" x="419.5" y="568.1201">&#1054;&#1096;&#1080;&#1073;&#1082;&#1072; (400)</text><polygon fill="#0078D7" points="252.5,599.3281,242.5,603.3281,252.5,607.3281,248.5,603.3281" style="stroke:#0078D7;stroke-width:1.0;"/><line style="stroke:#0078D7;stroke-width:1.0;stroke-dasharray:2.0,2.0;" x1="246.5" x2="401.5" y1="603.3281" y2="603.3281"/><text fill="#000000" font-family="sans-serif" font-size="13" lengthAdjust="spacing" textLength="137" x="258.5" y="598.4717">&#1055;&#1086;&#1082;&#1072;&#1079;&#1072;&#1090;&#1100; &#1090;&#1077;&#1082;&#1089;&#1090; &#1086;&#1096;&#1080;&#1073;&#1082;&#1080;</text><polygon fill="#0078D7" points="80.5,629.6797,70.5,633.6797,80.5,637.6797,76.5,633.6797" style="stroke:#0078D7;stroke-width:1.0;"/><line style="stroke:#0078D7;stroke-width:1.0;stroke-dasharray:2.0,2.0;" x1="74.5" x2="240.5" y1="633.6797" y2="633.6797"/><text fill="#000000" font-family="sans-serif" font-size="13" lengthAdjust="spacing" textLength="148" x="86.5" y="628.8232">&#1059;&#1074;&#1077;&#1076;&#1086;&#1084;&#1083;&#1077;&#1085;&#1080;&#1077; &#1086;&#1073; &#1086;&#1096;&#1080;&#1073;&#1082;&#1077;</text><!--SRC=[XLHTQnDH47tVNp74b_QX6a6f217w5QbKB5Zm-IPxMzQak-dT3QM8e2bgGR4eVQwK_e4aDarCs_GlpFr7dhbDqkmQB0jXitFEsPbpvcuI95LDVCGzRl9l-m6_bxYQnDSyi1_vWZjynWDkSzCsS7zXl_6LLF2lzrI80sw1r7R8AyXqYBjuS0R25-vvSIK8QygeRIgfScNBHFNGNuggaQ5xnM9neXphdReEovhUUKGBnaIxGrW-F_zaULuUbfF8B4R6roPRMWiszLeGwZkg_tIGbmk8TMMIe1pKL9XCbvW4P5LM7XOV5rUyzvwdf4FYNp15ZEgcZICLKptMnglTYb6EVwBQckDhcD-3YmC-7pcP4yQkBgK92-khz5mbUbVjEO2g1Hd54-v0hCqz-v6SxW2AVRI1TXobPgAtkfpyXsRtSNCJ_UKusZ-E74P9iBdd-IfH9HLh47yWxwxi3487yCf-jPySr2zv2BKEp4iTnsfBqwA9AjguulQEvnKATwyG5GgUXmZ4Effx9eOGDky4jAx3D62jB2MtxRxzFi6r-w0972ou1DRwgzSRz21HSIMc6Opvuit6B31I16Pe2t1BHiFX3U1cf2wGQa9yYXDn3PSEyBgcFIH95rtttEi-mxX386ci0qb_Mg_f1ab0SwdNhowd3r56T7jd9Dg2rGtdM4w6kbzsVVivnm1CP6_o4iOny7B2MpZ03UuZCSmp5XasFuId6-9Z8B0Gjf7kPMni1k0ClStgQBGNsQ-3O5r0mBfyXqg3OQVdqpygHBgApGFq0CMM6oMRHTQsoLPlMJEFyldPQItB6UxVxBKBpHtYldpt2EwD1APFS3hbx60233N9xSWOeO_T_Wi0]--></g></svg>