<?xml version="1.0" encoding="us-ascii" standalone="no"?><svg xmlns="http://www.w3.org/2000/svg" xmlns:xlink="http://www.w3.org/1999/xlink" contentStyleType="text/css" height="669px" preserveAspectRatio="none" style="width:528px;height:669px;background:#FFFFFF;" version="1.1" viewBox="0 0 528 669" width="528px" zoomAndPan="magnify"><defs/><g><text fill="#000000" font-family="sans-serif" font-size="14" font-weight="bold" lengthAdjust="spacing" textLength="199" x="157.75" y="24.5332">Project Management System</text><!--class e01--><g id="elem_e01"><rect codeLine="4" fill="#F1F1F1" height="136.0469" id="e01" rx="2.5" ry="2.5" style="stroke:#181818;stroke-width:0.5;" width="204" x="194" y="45.6094"/><ellipse cx="273.75" cy="61.6094" fill="#ADD1B2" rx="11" ry="11" style="stroke:#181818;stroke-width:1.0;"/><path d="M272.6094,62.4063 L272.6094,64.9063 L276.9375,64.9063 L276.9375,63.9844 Q276.9375,63.375 277.1797,63.1094 Q277.4219,62.8438 277.7969,62.8438 Q278.1719,62.8438 278.4063,63.1094 Q278.6406,63.375 278.6406,63.9844 L278.6406,66.6094 L270.6406,66.6094 Q270.0156,66.6094 269.7578,66.375 Q269.5,66.1406 269.5,65.75 Q269.5,65.375 269.7656,65.1406 Q270.0313,64.9063 270.6406,64.9063 L270.9063,64.9063 L270.9063,58.25 L270.6406,58.25 Q270.0156,58.25 269.7578,58.0156 Q269.5,57.7813 269.5,57.3906 Q269.5,57.0156 269.7578,56.7813 Q270.0156,56.5469 270.6406,56.5469 L278.2656,56.5469 L278.2656,59.1406 Q278.2656,59.75 278.0391,60.0078 Q277.8125,60.2656 277.4219,60.2656 Q277.0469,60.2656 276.8125,60.0078 Q276.5781,59.75 276.5781,59.1406 L276.5781,58.25 L272.6094,58.25 L272.6094,60.7031 L274.0938,60.7031 Q274.0938,60.0469 274.2188,59.8594 Q274.4844,59.4531 274.9531,59.4531 Q275.3281,59.4531 275.5625,59.7109 Q275.7969,59.9688 275.7969,60.5781 L275.7969,62.5469 Q275.7969,63.0938 275.6719,63.2813 Q275.4063,63.6719 274.9531,63.6719 Q274.4844,63.6719 274.2188,63.2656 Q274.0938,63.0781 274.0938,62.4063 L272.6094,62.4063 Z " fill="#000000"/><text fill="#000000" font-family="sans-serif" font-size="14" lengthAdjust="spacing" textLength="36" x="294.25" y="67.3379">Users</text><line style="stroke:#181818;stroke-width:0.5;" x1="195" x2="397" y1="77.6094" y2="77.6094"/><text fill="#000000" font-family="sans-serif" font-size="14" lengthAdjust="spacing" textLength="141" x="200" y="96.1426">user_id : integer &#171;PK&#187;</text><line style="stroke:#181818;stroke-width:1.0;" x1="195" x2="397" y1="103.2188" y2="103.2188"/><text fill="#000000" font-family="sans-serif" font-size="14" lengthAdjust="spacing" textLength="95" x="200" y="121.752">name : varchar</text><text fill="#000000" font-family="sans-serif" font-size="14" lengthAdjust="spacing" textLength="93" x="200" y="139.3613">email : varchar</text><text fill="#000000" font-family="sans-serif" font-size="14" lengthAdjust="spacing" textLength="144" x="200" y="156.9707">created_at : timestamp</text><text fill="#000000" font-family="sans-serif" font-size="14" lengthAdjust="spacing" textLength="192" x="200" y="174.5801">role : enum (assigner, creator)</text></g><!--class e02--><g id="elem_e02"><rect codeLine="14" fill="#F1F1F1" height="153.6563" id="e02" rx="2.5" ry="2.5" style="stroke:#181818;stroke-width:0.5;" width="168" x="7" y="241.6094"/><ellipse cx="61.25" cy="257.6094" fill="#ADD1B2" rx="11" ry="11" style="stroke:#181818;stroke-width:1.0;"/><path d="M60.1094,258.4063 L60.1094,260.9063 L64.4375,260.9063 L64.4375,259.9844 Q64.4375,259.375 64.6797,259.1094 Q64.9219,258.8438 65.2969,258.8438 Q65.6719,258.8438 65.9063,259.1094 Q66.1406,259.375 66.1406,259.9844 L66.1406,262.6094 L58.1406,262.6094 Q57.5156,262.6094 57.2578,262.375 Q57,262.1406 57,261.75 Q57,261.375 57.2656,261.1406 Q57.5313,260.9063 58.1406,260.9063 L58.4063,260.9063 L58.4063,254.25 L58.1406,254.25 Q57.5156,254.25 57.2578,254.0156 Q57,253.7813 57,253.3906 Q57,253.0156 57.2578,252.7813 Q57.5156,252.5469 58.1406,252.5469 L65.7656,252.5469 L65.7656,255.1406 Q65.7656,255.75 65.5391,256.0078 Q65.3125,256.2656 64.9219,256.2656 Q64.5469,256.2656 64.3125,256.0078 Q64.0781,255.75 64.0781,255.1406 L64.0781,254.25 L60.1094,254.25 L60.1094,256.7031 L61.5938,256.7031 Q61.5938,256.0469 61.7188,255.8594 Q61.9844,255.4531 62.4531,255.4531 Q62.8281,255.4531 63.0625,255.7109 Q63.2969,255.9688 63.2969,256.5781 L63.2969,258.5469 Q63.2969,259.0938 63.1719,259.2813 Q62.9063,259.6719 62.4531,259.6719 Q61.9844,259.6719 61.7188,259.2656 Q61.5938,259.0781 61.5938,258.4063 L60.1094,258.4063 Z " fill="#000000"/><text fill="#000000" font-family="sans-serif" font-size="14" lengthAdjust="spacing" textLength="51" x="81.75" y="263.3379">Projects</text><line style="stroke:#181818;stroke-width:0.5;" x1="8" x2="174" y1="273.6094" y2="273.6094"/><text fill="#000000" font-family="sans-serif" font-size="14" lengthAdjust="spacing" textLength="156" x="13" y="292.1426">project_id : integer &#171;PK&#187;</text><line style="stroke:#181818;stroke-width:1.0;" x1="8" x2="174" y1="299.2188" y2="299.2188"/><ellipse cx="18" cy="313.5234" fill="#000000" rx="3" ry="3" style="stroke:#000000;stroke-width:1.0;"/><text fill="#000000" font-family="sans-serif" font-size="14" lengthAdjust="spacing" textLength="141" x="27" y="317.752">user_id : integer &#171;FK&#187;</text><text fill="#000000" font-family="sans-serif" font-size="14" lengthAdjust="spacing" textLength="82" x="27" y="335.3613">title : varchar</text><text fill="#000000" font-family="sans-serif" font-size="14" lengthAdjust="spacing" textLength="129" x="27" y="352.9707">description : varchar</text><text fill="#000000" font-family="sans-serif" font-size="14" lengthAdjust="spacing" textLength="140" x="27" y="370.5801">start_date : timestamp</text><text fill="#000000" font-family="sans-serif" font-size="14" lengthAdjust="spacing" textLength="130" x="27" y="388.1895">deadline : timestamp</text></g><!--class e03--><g id="elem_e03"><rect codeLine="24" fill="#F1F1F1" height="206.4844" id="e03" rx="2.5" ry="2.5" style="stroke:#181818;stroke-width:0.5;" width="282" x="20" y="455.6094"/><ellipse cx="137.75" cy="471.6094" fill="#ADD1B2" rx="11" ry="11" style="stroke:#181818;stroke-width:1.0;"/><path d="M136.6094,472.4063 L136.6094,474.9063 L140.9375,474.9063 L140.9375,473.9844 Q140.9375,473.375 141.1797,473.1094 Q141.4219,472.8438 141.7969,472.8438 Q142.1719,472.8438 142.4063,473.1094 Q142.6406,473.375 142.6406,473.9844 L142.6406,476.6094 L134.6406,476.6094 Q134.0156,476.6094 133.7578,476.375 Q133.5,476.1406 133.5,475.75 Q133.5,475.375 133.7656,475.1406 Q134.0313,474.9063 134.6406,474.9063 L134.9063,474.9063 L134.9063,468.25 L134.6406,468.25 Q134.0156,468.25 133.7578,468.0156 Q133.5,467.7813 133.5,467.3906 Q133.5,467.0156 133.7578,466.7813 Q134.0156,466.5469 134.6406,466.5469 L142.2656,466.5469 L142.2656,469.1406 Q142.2656,469.75 142.0391,470.0078 Q141.8125,470.2656 141.4219,470.2656 Q141.0469,470.2656 140.8125,470.0078 Q140.5781,469.75 140.5781,469.1406 L140.5781,468.25 L136.6094,468.25 L136.6094,470.7031 L138.0938,470.7031 Q138.0938,470.0469 138.2188,469.8594 Q138.4844,469.4531 138.9531,469.4531 Q139.3281,469.4531 139.5625,469.7109 Q139.7969,469.9688 139.7969,470.5781 L139.7969,472.5469 Q139.7969,473.0938 139.6719,473.2813 Q139.4063,473.6719 138.9531,473.6719 Q138.4844,473.6719 138.2188,473.2656 Q138.0938,473.0781 138.0938,472.4063 L136.6094,472.4063 Z " fill="#000000"/><text fill="#000000" font-family="sans-serif" font-size="14" lengthAdjust="spacing" textLength="38" x="158.25" y="477.3379">Tasks</text><line style="stroke:#181818;stroke-width:0.5;" x1="21" x2="301" y1="487.6094" y2="487.6094"/><ellipse cx="31" cy="501.9141" fill="#000000" rx="3" ry="3" style="stroke:#000000;stroke-width:1.0;"/><text fill="#000000" font-family="sans-serif" font-size="14" lengthAdjust="spacing" textLength="139" x="40" y="506.1426">task_id : integer &#171;PK&#187;</text><line style="stroke:#181818;stroke-width:1.0;" x1="21" x2="301" y1="513.2188" y2="513.2188"/><ellipse cx="31" cy="527.5234" fill="#000000" rx="3" ry="3" style="stroke:#000000;stroke-width:1.0;"/><text fill="#000000" font-family="sans-serif" font-size="14" lengthAdjust="spacing" textLength="156" x="40" y="531.752">project_id : integer &#171;FK&#187;</text><ellipse cx="31" cy="545.1328" fill="#000000" rx="3" ry="3" style="stroke:#000000;stroke-width:1.0;"/><text fill="#000000" font-family="sans-serif" font-size="14" lengthAdjust="spacing" textLength="141" x="40" y="549.3613">user_id : integer &#171;FK&#187;</text><text fill="#000000" font-family="sans-serif" font-size="14" lengthAdjust="spacing" textLength="82" x="40" y="566.9707">title : varchar</text><text fill="#000000" font-family="sans-serif" font-size="14" lengthAdjust="spacing" textLength="103" x="40" y="584.5801">description : text</text><text fill="#000000" font-family="sans-serif" font-size="14" lengthAdjust="spacing" textLength="222" x="40" y="602.1895">priority : enum('low','medium','high')</text><text fill="#000000" font-family="sans-serif" font-size="14" lengthAdjust="spacing" textLength="256" x="40" y="619.7988">status : enum('todo','in_progress','done')</text><text fill="#000000" font-family="sans-serif" font-size="14" lengthAdjust="spacing" textLength="120" x="40" y="637.4082">deadline : datetime</text><text fill="#000000" font-family="sans-serif" font-size="14" lengthAdjust="spacing" textLength="144" x="40" y="655.0176">created_at : timestamp</text></g><!--class e04--><g id="elem_e04"><rect codeLine="37" fill="#F1F1F1" height="118.4375" id="e04" rx="2.5" ry="2.5" style="stroke:#181818;stroke-width:0.5;" width="167" x="281.5" y="259.6094"/><ellipse cx="342.25" cy="275.6094" fill="#ADD1B2" rx="11" ry="11" style="stroke:#181818;stroke-width:1.0;"/><path d="M341.1094,276.4063 L341.1094,278.9063 L345.4375,278.9063 L345.4375,277.9844 Q345.4375,277.375 345.6797,277.1094 Q345.9219,276.8438 346.2969,276.8438 Q346.6719,276.8438 346.9063,277.1094 Q347.1406,277.375 347.1406,277.9844 L347.1406,280.6094 L339.1406,280.6094 Q338.5156,280.6094 338.2578,280.375 Q338,280.1406 338,279.75 Q338,279.375 338.2656,279.1406 Q338.5313,278.9063 339.1406,278.9063 L339.4063,278.9063 L339.4063,272.25 L339.1406,272.25 Q338.5156,272.25 338.2578,272.0156 Q338,271.7813 338,271.3906 Q338,271.0156 338.2578,270.7813 Q338.5156,270.5469 339.1406,270.5469 L346.7656,270.5469 L346.7656,273.1406 Q346.7656,273.75 346.5391,274.0078 Q346.3125,274.2656 345.9219,274.2656 Q345.5469,274.2656 345.3125,274.0078 Q345.0781,273.75 345.0781,273.1406 L345.0781,272.25 L341.1094,272.25 L341.1094,274.7031 L342.5938,274.7031 Q342.5938,274.0469 342.7188,273.8594 Q342.9844,273.4531 343.4531,273.4531 Q343.8281,273.4531 344.0625,273.7109 Q344.2969,273.9688 344.2969,274.5781 L344.2969,276.5469 Q344.2969,277.0938 344.1719,277.2813 Q343.9063,277.6719 343.4531,277.6719 Q342.9844,277.6719 342.7188,277.2656 Q342.5938,277.0781 342.5938,276.4063 L341.1094,276.4063 Z " fill="#000000"/><text fill="#000000" font-family="sans-serif" font-size="14" lengthAdjust="spacing" textLength="37" x="362.75" y="281.3379">Chats</text><line style="stroke:#181818;stroke-width:0.5;" x1="282.5" x2="447.5" y1="291.6094" y2="291.6094"/><ellipse cx="292.5" cy="305.9141" fill="#000000" rx="3" ry="3" style="stroke:#000000;stroke-width:1.0;"/><text fill="#000000" font-family="sans-serif" font-size="14" lengthAdjust="spacing" textLength="140" x="301.5" y="310.1426">chat_id : integer &#171;PK&#187;</text><line style="stroke:#181818;stroke-width:1.0;" x1="282.5" x2="447.5" y1="317.2188" y2="317.2188"/><ellipse cx="292.5" cy="331.5234" fill="#000000" rx="3" ry="3" style="stroke:#000000;stroke-width:1.0;"/><text fill="#000000" font-family="sans-serif" font-size="14" lengthAdjust="spacing" textLength="141" x="301.5" y="335.752">user_id : integer &#171;FK&#187;</text><text fill="#000000" font-family="sans-serif" font-size="14" lengthAdjust="spacing" textLength="95" x="301.5" y="353.3613">name : varchar</text><text fill="#000000" font-family="sans-serif" font-size="14" lengthAdjust="spacing" textLength="134" x="301.5" y="370.9707">created_at : datetime</text></g><!--class e05--><g id="elem_e05"><rect codeLine="45" fill="#F1F1F1" height="171.2656" id="e05" rx="2.5" ry="2.5" style="stroke:#181818;stroke-width:0.5;" width="181" x="340.5" y="473.1094"/><ellipse cx="415.25" cy="489.1094" fill="#ADD1B2" rx="11" ry="11" style="stroke:#181818;stroke-width:1.0;"/><path d="M414.1094,489.9063 L414.1094,492.4063 L418.4375,492.4063 L418.4375,491.4844 Q418.4375,490.875 418.6797,490.6094 Q418.9219,490.3438 419.2969,490.3438 Q419.6719,490.3438 419.9063,490.6094 Q420.1406,490.875 420.1406,491.4844 L420.1406,494.1094 L412.1406,494.1094 Q411.5156,494.1094 411.2578,493.875 Q411,493.6406 411,493.25 Q411,492.875 411.2656,492.6406 Q411.5313,492.4063 412.1406,492.4063 L412.4063,492.4063 L412.4063,485.75 L412.1406,485.75 Q411.5156,485.75 411.2578,485.5156 Q411,485.2813 411,484.8906 Q411,484.5156 411.2578,484.2813 Q411.5156,484.0469 412.1406,484.0469 L419.7656,484.0469 L419.7656,486.6406 Q419.7656,487.25 419.5391,487.5078 Q419.3125,487.7656 418.9219,487.7656 Q418.5469,487.7656 418.3125,487.5078 Q418.0781,487.25 418.0781,486.6406 L418.0781,485.75 L414.1094,485.75 L414.1094,488.2031 L415.5938,488.2031 Q415.5938,487.5469 415.7188,487.3594 Q415.9844,486.9531 416.4531,486.9531 Q416.8281,486.9531 417.0625,487.2109 Q417.2969,487.4688 417.2969,488.0781 L417.2969,490.0469 Q417.2969,490.5938 417.1719,490.7813 Q416.9063,491.1719 416.4531,491.1719 Q415.9844,491.1719 415.7188,490.7656 Q415.5938,490.5781 415.5938,489.9063 L414.1094,489.9063 Z " fill="#000000"/><text fill="#000000" font-family="sans-serif" font-size="14" lengthAdjust="spacing" textLength="23" x="435.75" y="494.8379">File</text><line style="stroke:#181818;stroke-width:0.5;" x1="341.5" x2="520.5" y1="505.1094" y2="505.1094"/><ellipse cx="351.5" cy="519.4141" fill="#000000" rx="3" ry="3" style="stroke:#000000;stroke-width:1.0;"/><text fill="#000000" font-family="sans-serif" font-size="14" lengthAdjust="spacing" textLength="131" x="360.5" y="523.6426">file_id : integer &#171;PK&#187;</text><line style="stroke:#181818;stroke-width:1.0;" x1="341.5" x2="520.5" y1="530.7188" y2="530.7188"/><ellipse cx="351.5" cy="545.0234" fill="#000000" rx="3" ry="3" style="stroke:#000000;stroke-width:1.0;"/><text fill="#000000" font-family="sans-serif" font-size="14" lengthAdjust="spacing" textLength="140" x="360.5" y="549.252">chat_id : integer &#171;FK&#187;</text><ellipse cx="351.5" cy="562.6328" fill="#000000" rx="3" ry="3" style="stroke:#000000;stroke-width:1.0;"/><text fill="#000000" font-family="sans-serif" font-size="14" lengthAdjust="spacing" textLength="141" x="360.5" y="566.8613">user_id : integer &#171;FK&#187;</text><text fill="#000000" font-family="sans-serif" font-size="14" lengthAdjust="spacing" textLength="113" x="360.5" y="584.4707">filename : varchar</text><text fill="#000000" font-family="sans-serif" font-size="14" lengthAdjust="spacing" textLength="106" x="360.5" y="602.0801">filepath : varchar</text><text fill="#000000" font-family="sans-serif" font-size="14" lengthAdjust="spacing" textLength="80" x="360.5" y="619.6895">size : integer</text><text fill="#000000" font-family="sans-serif" font-size="14" lengthAdjust="spacing" textLength="155" x="360.5" y="637.2988">uploaded_at : timestamp</text></g><!--link e01 to e02--><g id="link_e01_e02"><path codeLine="60" d="M223.17,189.7094 C223.17,224.0894 223.17,250.6094 223.17,250.6094 C223.17,250.6094 209.14,250.6094 183.08,250.6094 " fill="none" id="e01-e02" style="stroke:#181818;stroke-width:1.0;"/><line style="stroke:#181818;stroke-width:1.0;" x1="219.17" x2="227.17" y1="185.7094" y2="185.7094"/><line style="stroke:#181818;stroke-width:1.0;" x1="219.17" x2="227.17" y1="188.7094" y2="188.7094"/><line style="stroke:#181818;stroke-width:1.0;" x1="223.17" x2="223.17" y1="189.7094" y2="181.7094"/><line style="stroke:#181818;stroke-width:1.0;" x1="179.08" x2="179.08" y1="254.6094" y2="246.6094"/><line style="stroke:#181818;stroke-width:1.0;" x1="182.08" x2="182.08" y1="254.6094" y2="246.6094"/><line style="stroke:#181818;stroke-width:1.0;" x1="183.08" x2="175.08" y1="250.6094" y2="250.6094"/></g><!--link e04 to e05--><g id="link_e04_e05"><path codeLine="61" d="M394.5,385.6294 C394.5,414.3594 394.5,423.4394 394.5,455.0394 " fill="none" id="e04-e05" style="stroke:#181818;stroke-width:1.0;"/><line style="stroke:#181818;stroke-width:1.0;" x1="390.5" x2="398.5" y1="381.6294" y2="381.6294"/><line style="stroke:#181818;stroke-width:1.0;" x1="390.5" x2="398.5" y1="384.6294" y2="384.6294"/><line style="stroke:#181818;stroke-width:1.0;" x1="394.5" x2="394.5" y1="385.6294" y2="377.6294"/><line style="stroke:#181818;stroke-width:1.0;" x1="394.5" x2="400.5" y1="465.0394" y2="473.0394"/><line style="stroke:#181818;stroke-width:1.0;" x1="394.5" x2="388.5" y1="465.0394" y2="473.0394"/><line style="stroke:#181818;stroke-width:1.0;" x1="394.5" x2="394.5" y1="465.0394" y2="473.0394"/><ellipse cx="394.5" cy="459.0394" fill="none" rx="4" ry="4" style="stroke:#181818;stroke-width:1.0;"/></g><!--link e02 to e03--><g id="link_e02_e03"><path codeLine="62" d="M97.5,403.8694 C97.5,422.7794 97.5,417.3194 97.5,437.2294 " fill="none" id="e02-e03" style="stroke:#181818;stroke-width:1.0;"/><line style="stroke:#181818;stroke-width:1.0;" x1="93.5" x2="101.5" y1="399.8694" y2="399.8694"/><line style="stroke:#181818;stroke-width:1.0;" x1="93.5" x2="101.5" y1="402.8694" y2="402.8694"/><line style="stroke:#181818;stroke-width:1.0;" x1="97.5" x2="97.5" y1="403.8694" y2="395.8694"/><line style="stroke:#181818;stroke-width:1.0;" x1="97.5" x2="103.5" y1="447.2294" y2="455.2294"/><line style="stroke:#181818;stroke-width:1.0;" x1="97.5" x2="91.5" y1="447.2294" y2="455.2294"/><line style="stroke:#181818;stroke-width:1.0;" x1="97.5" x2="97.5" y1="447.2294" y2="455.2294"/><ellipse cx="97.5" cy="441.2294" fill="none" rx="4" ry="4" style="stroke:#181818;stroke-width:1.0;"/></g><!--link e01 to e04--><g id="link_e01_e04"><path codeLine="63" d="M339.75,189.8694 C339.75,215.0294 339.75,217.2994 339.75,241.5694 " fill="none" id="e01-e04" style="stroke:#181818;stroke-width:1.0;"/><line style="stroke:#181818;stroke-width:1.0;" x1="335.75" x2="343.75" y1="185.8694" y2="185.8694"/><line style="stroke:#181818;stroke-width:1.0;" x1="335.75" x2="343.75" y1="188.8694" y2="188.8694"/><line style="stroke:#181818;stroke-width:1.0;" x1="339.75" x2="339.75" y1="189.8694" y2="181.8694"/><line style="stroke:#181818;stroke-width:1.0;" x1="339.75" x2="345.75" y1="251.5694" y2="259.5694"/><line style="stroke:#181818;stroke-width:1.0;" x1="339.75" x2="333.75" y1="251.5694" y2="259.5694"/><line style="stroke:#181818;stroke-width:1.0;" x1="339.75" x2="339.75" y1="251.5694" y2="259.5694"/><ellipse cx="339.75" cy="245.5694" fill="none" rx="4" ry="4" style="stroke:#181818;stroke-width:1.0;"/></g><!--link e01 to e05--><g id="link_e01_e05"><path codeLine="64" d="M406.24,113.6094 C450.78,113.6094 485,113.6094 485,113.6094 C485,113.6094 485,325.8094 485,455.0694 " fill="none" id="e01-e05" style="stroke:#181818;stroke-width:1.0;"/><line style="stroke:#181818;stroke-width:1.0;" x1="402.24" x2="402.24" y1="117.6094" y2="109.6094"/><line style="stroke:#181818;stroke-width:1.0;" x1="405.24" x2="405.24" y1="117.6094" y2="109.6094"/><line style="stroke:#181818;stroke-width:1.0;" x1="406.24" x2="398.24" y1="113.6094" y2="113.6094"/><line style="stroke:#181818;stroke-width:1.0;" x1="485" x2="491" y1="465.0694" y2="473.0694"/><line style="stroke:#181818;stroke-width:1.0;" x1="485" x2="479" y1="465.0694" y2="473.0694"/><line style="stroke:#181818;stroke-width:1.0;" x1="485" x2="485" y1="465.0694" y2="473.0694"/><ellipse cx="485" cy="459.0694" fill="none" rx="4" ry="4" style="stroke:#181818;stroke-width:1.0;"/></g><!--link e01 to e03--><g id="link_e01_e03"><path codeLine="65" d="M252.33,189.6794 C252.33,262.5994 252.33,353.1894 252.33,437.3994 " fill="none" id="e01-e03" style="stroke:#181818;stroke-width:1.0;"/><line style="stroke:#181818;stroke-width:1.0;" x1="248.33" x2="256.33" y1="185.6794" y2="185.6794"/><line style="stroke:#181818;stroke-width:1.0;" x1="248.33" x2="256.33" y1="188.6794" y2="188.6794"/><line style="stroke:#181818;stroke-width:1.0;" x1="252.33" x2="252.33" y1="189.6794" y2="181.6794"/><line style="stroke:#181818;stroke-width:1.0;" x1="252.33" x2="258.33" y1="447.3994" y2="455.3994"/><line style="stroke:#181818;stroke-width:1.0;" x1="252.33" x2="246.33" y1="447.3994" y2="455.3994"/><line style="stroke:#181818;stroke-width:1.0;" x1="252.33" x2="252.33" y1="447.3994" y2="455.3994"/><ellipse cx="252.33" cy="441.3994" fill="none" rx="4" ry="4" style="stroke:#181818;stroke-width:1.0;"/></g><!--SRC=[fPF1JiCm38RlUOg8opR4961mGMWNf5qGqYJWF5cBQGrDKYKUCBQzEquxkfMD2K4FLVtRJJx_YPcuG3qE_XcdhE_0GOOM7UlxUMIqMiKNSYK4iBeWXpmlKVl0kLTAgeZd-kWnOeX76gB6qpEzK5hFH9cGqLUQ76E6GLzVZs-7Gqdr-_9oO56Ihn2cEGGHq08LBMKQ41ZD15Xa9ekHmPQI2Bv8_wARMTs562bp64xgUXzwQgKsPEkslk3EAxYo5W_n7UzhO5GNS6NODgh1E0rKCddNqeKuyCH86zzQC0WccTcILnli1uWlNyo3YlcOHJf8_4DNQ-Z_DCJupfLjv4F2gxtlTWh_rZdfM3Gqi_AHKvPtUdNRF8jD6NlZ9Krk8eXPm1WbCjvXLRnbHJ8gsV7puMzPT9D3SwmNjKK2_-T3tRcGBOA6R0jWH0Mkzx-iztyIvU3- -m1_SJvftHs-99R0UVl2qGTkLaXpM1OUp5uZqvF6TRdizvVBD1mgEPb2lqXDgJGlJJXeYglmeXrUjiE1-WG0]--></g></svg>